# xmcd CD database file
#
# Track frame offsets:
#	150
#	12095
#	30597
#	42472
#	55905
#	70077
#	80947
#	95027
#	109132
#	128475
#	143292
#	160452
#	172375
#	183345
#	196862
#	213665
#	225862
#	243135
#	257722
#	273830
#
# Disc length: 3847 seconds
#
# Revision: 0
# Processed by: cddbd v1.5PL3 Copyright (c) Steve Scherf et al.
# Submitted via: CDex 1.50beta8
#
DISCID=120f0514
DTITLE=Various Artist - The Best of Country
DYEAR=1900
DGENRE=Country
TTITLE0=Johnny Cash - Filsome Prison Blues
TTITLE1=Marty Robbins - Good Hearted Woman
TTITLE2=George Jones - White Lightnin'
TTITLE3=Lynn Anderson - Top of The World
TTITLE4=Mary Kay Place - Save The Last Dance For Me
TTITLE5=Ray Price - Help Me Make It Thru The Night
TTITLE6=Lacy J. Dalton - Tenessee Waltz
TTITLE7=Mickey Gilley - You Don't Know Me
TTITLE8=Marty Robbins - El Paso City
TTITLE9=Willie Nelson - South of Border
TTITLE10=Johnny Cash - (Ghost) Riders In The Sky
TTITLE11=Rosanne Cash - I Don't Want To Spoil The Party
TTITLE12=Ricky Skaggs - Uncle Pen
TTITLE13=Carl Jackson - She's Gone Gone Gone
TTITLE14=Merle Haggard - Silver Wings
TTITLE15=Tammy Wynette - Stand By Your Man
TTITLE16=Ray Price - For The Good Times
TTITLE17=Merle Haggard - Almost Persuaded
TTITLE18=Willie Nelson - Always On My Mind
TTITLE19=George Jones - He Stopped Loving Her Today
EXTD=
EXTT0=
EXTT1=
EXTT2=
EXTT3=
EXTT4=
EXTT5=
EXTT6=
EXTT7=
EXTT8=
EXTT9=
EXTT10=
EXTT11=
EXTT12=
EXTT13=
EXTT14=
EXTT15=
EXTT16=
EXTT17=
EXTT18=
EXTT19=
PLAYORDER=
